<?xml version="1.0" encoding="UTF-8" standalone="no"?>
<!-- Created with Inkscape (http://www.inkscape.org/) -->

<svg
   xmlns:dc="http://purl.org/dc/elements/1.1/"
   xmlns:cc="http://creativecommons.org/ns#"
   xmlns:rdf="http://www.w3.org/1999/02/22-rdf-syntax-ns#"
   xmlns:svg="http://www.w3.org/2000/svg"
   xmlns="http://www.w3.org/2000/svg"
   xmlns:sodipodi="http://sodipodi.sourceforge.net/DTD/sodipodi-0.dtd"
   xmlns:inkscape="http://www.inkscape.org/namespaces/inkscape"
   width="210mm"
   height="297mm"
   viewBox="0 0 210 297"
   version="1.1"
   id="svg5210"
   inkscape:version="0.92.4 (5da689c313, 2019-01-14)"
   sodipodi:docname="compressive spring.svg">
  <defs
     id="defs5204" />
  <sodipodi:namedview
     id="base"
     pagecolor="#ffffff"
     bordercolor="#666666"
     borderopacity="1.0"
     inkscape:pageopacity="0.0"
     inkscape:pageshadow="2"
     inkscape:zoom="0.35"
     inkscape:cx="-64.285714"
     inkscape:cy="560"
     inkscape:document-units="mm"
     inkscape:current-layer="layer1"
     showgrid="false"
     inkscape:window-width="1366"
     inkscape:window-height="705"
     inkscape:window-x="-8"
     inkscape:window-y="-8"
     inkscape:window-maximized="1" />
  <metadata
     id="metadata5207">
    <rdf:RDF>
      <cc:Work
         rdf:about="">
        <dc:format>image/svg+xml</dc:format>
        <dc:type
           rdf:resource="http://purl.org/dc/dcmitype/StillImage" />
        <dc:title></dc:title>
      </cc:Work>
    </rdf:RDF>
  </metadata>
  <g
     inkscape:label="Layer 1"
     inkscape:groupmode="layer"
     id="layer1">
    <path
       id="path3604"
       title="t+cos(3*t) 3*sin(3*t)"
       d="m 92.405545,154.12521 c -1.554942,0.15558 -2.126718,0.41639 -1.466843,0.62 0.659874,0.2036 2.534028,0.33933 4.798191,0.29955 2.26414,-0.0398 4.846977,-0.25817 6.619217,-0.6078 1.77227,-0.34963 2.67286,-0.82345 2.31201,-1.26285 -0.36084,-0.4394 -1.97749,-0.83367 -4.13969,-1.05969 -2.162197,-0.22605 -4.802837,-0.27939 -6.768555,-0.18629 -1.965699,0.093 -3.189968,0.32675 -3.143082,0.54961 0.04693,0.22285 1.369343,0.42408 3.383445,0.46729 2.014105,0.0431 4.658095,-0.0773 6.774512,-0.35709 2.11642,-0.27969 3.63447,-0.71385 3.89367,-1.16102 0.25921,-0.44717 -0.75478,-0.89663 -2.59455,-1.20096 -1.83978,-0.30434 -4.449927,-0.45668 -6.689037,-0.43996 -2.239138,0.0167 -4.033313,0.1991 -4.602783,0.41812 -0.569489,0.21901 0.109777,0.46416 1.734657,0.57964 1.624863,0.11541 4.147286,0.0933 6.461626,-0.10481 2.314337,-0.19817 4.344867,-0.57038 5.206087,-1.00218 0.86121,-0.43178 0.51976,-0.91311 -0.87073,-1.28243 -1.39047,-0.36933 -3.790107,-0.61784 -6.148207,-0.68641 -2.3581,-0.0685 -4.598464,0.0423 -5.745149,0.23465 -1.146686,0.19236 -1.157627,0.45676 -0.03434,0.62883 1.123317,0.17206 3.349889,0.24219 5.702209,0.13161 2.35232,-0.11068 4.754997,-0.40297 6.158607,-0.79727 1.40363,-0.3943 1.75812,-0.88196 0.91277,-1.2985 -0.84533,-0.41655 -2.86891,-0.7518 -5.183337,-0.90858 -2.31443,-0.1568 -4.846473,-0.13287 -6.49135,0.0112 -1.644877,0.14468 -2.345432,0.4024 -1.801406,0.61148 0.544043,0.20906 2.320904,0.3589 4.548666,0.33567 2.22774,-0.0231 4.836547,-0.22312 6.685497,-0.56042 1.84898,-0.33731 2.87479,-0.80535 2.6328,-1.24806 -0.24197,-0.4427 -1.74997,-0.84925 -3.8611,-1.09117 -2.111117,-0.24191 -4.760157,-0.31423 -6.789831,-0.23489 -2.029654,0.0792 -3.371609,0.30487 -3.444552,0.52879 -0.07293,0.22394 1.131389,0.43542 3.08061,0.49353 1.949246,0.058 4.583936,-0.0434 6.750433,-0.30805 2.16651,-0.26471 3.79266,-0.68855 4.17058,-1.13455 0.37793,-0.44601 -0.5105,-0.90351 -2.27272,-1.22155 -1.76222,-0.31805 -4.345547,-0.48934 -6.620017,-0.48855 -2.274448,7.9e-4 -4.165319,0.17085 -4.850344,0.38647 -0.685022,0.21562 -0.136529,0.46646 1.399449,0.59418 1.535979,0.1277 4.014495,0.12407 6.348825,-0.0576 2.334327,-0.18159 4.448427,-0.53966 5.420017,-0.96588 0.97159,-0.42623 0.7639,-0.91079 -0.52791,-1.29072 -1.2918,-0.37993 -3.631207,-0.64609 -5.993597,-0.73161 -2.3624,-0.0855 -4.671761,0.0102 -5.921748,0.19434 -1.249984,0.18472 -1.395351,0.44986 -0.37879,0.63067 1.016562,0.18082 3.167618,0.26747 5.508478,0.17386 2.34085,-0.0936 4.796777,-0.36891 6.294807,-0.75363 1.49803,-0.38473 1.98526,-0.87062 1.2529,-1.29391 -0.73237,-0.4233 -2.66648,-0.77366 -4.953867,-0.94729 -2.28738,-0.17362 -4.855982,-0.16767 -6.58475,-0.0343 -1.728788,0.13328 -2.558107,0.38683 -2.131329,0.60052 0.426796,0.2137 2.101778,0.37697 4.287379,0.37009 2.18559,-0.007 4.81366,-0.18809 6.734547,-0.51249 1.92089,-0.32437 3.06928,-0.78576 2.94678,-1.23089 -0.12244,-0.44515 -1.51798,-0.86323 -3.57257,-1.12069 -2.054607,-0.25746 -4.705227,-0.34884 -6.793613,-0.28377 -2.088385,0.065 -3.544582,0.28162 -3.737171,0.50575 -0.192585,0.22414 0.890517,0.44504 2.769832,0.51766 1.879315,0.0726 4.497915,-0.0102 6.708905,-0.25909 2.210987,-0.24936 3.941087,-0.66207 4.436757,-1.10604 0.49566,-0.44397 -0.26496,-0.90862 -1.94508,-1.23985"
       style="opacity:1;fill:none;fill-opacity:1;fill-rule:evenodd;stroke:#000000;stroke-width:0.60000002;stroke-miterlimit:4;stroke-dasharray:none;stroke-opacity:0.94472363"
       inkscape:connector-curvature="0" />
  </g>
</svg>
