<?xml version="1.0" encoding="UTF-8" standalone="no"?>
<!-- Created with Inkscape (http://www.inkscape.org/) -->

<svg
   xmlns:osb="http://www.openswatchbook.org/uri/2009/osb"
   xmlns:dc="http://purl.org/dc/elements/1.1/"
   xmlns:cc="http://creativecommons.org/ns#"
   xmlns:rdf="http://www.w3.org/1999/02/22-rdf-syntax-ns#"
   xmlns:svg="http://www.w3.org/2000/svg"
   xmlns="http://www.w3.org/2000/svg"
   xmlns:sodipodi="http://sodipodi.sourceforge.net/DTD/sodipodi-0.dtd"
   xmlns:inkscape="http://www.inkscape.org/namespaces/inkscape"
   width="210mm"
   height="297mm"
   viewBox="0 0 210 297"
   version="1.1"
   id="svg8"
   inkscape:version="0.92.4 (5da689c313, 2019-01-14)"
   sodipodi:docname="tensile spring.svg">
  <defs
     id="defs2">
    <linearGradient
       id="linearGradient2301"
       osb:paint="solid">
      <stop
         style="stop-color:#999999;stop-opacity:1;"
         offset="0"
         id="stop2299" />
    </linearGradient>
    <linearGradient
       id="linearGradient855"
       osb:paint="solid">
      <stop
         style="stop-color:#000000;stop-opacity:1;"
         offset="0"
         id="stop853" />
    </linearGradient>
    <linearGradient
       id="linearGradient825"
       osb:paint="solid">
      <stop
         style="stop-color:#999999;stop-opacity:1;"
         offset="0"
         id="stop823" />
    </linearGradient>
    <linearGradient
       id="linearGradient819"
       osb:paint="solid">
      <stop
         style="stop-color:#999999;stop-opacity:1;"
         offset="0"
         id="stop817" />
    </linearGradient>
  </defs>
  <sodipodi:namedview
     id="base"
     pagecolor="#ffffff"
     bordercolor="#666666"
     borderopacity="1.0"
     inkscape:pageopacity="0.0"
     inkscape:pageshadow="2"
     inkscape:zoom="2.56"
     inkscape:cx="335.72355"
     inkscape:cy="763.73233"
     inkscape:document-units="mm"
     inkscape:current-layer="g5784"
     showgrid="false"
     inkscape:window-width="1366"
     inkscape:window-height="705"
     inkscape:window-x="-8"
     inkscape:window-y="-8"
     inkscape:window-maximized="1"
     inkscape:snap-nodes="false" />
  <metadata
     id="metadata5">
    <rdf:RDF>
      <cc:Work
         rdf:about="">
        <dc:format>image/svg+xml</dc:format>
        <dc:type
           rdf:resource="http://purl.org/dc/dcmitype/StillImage" />
        <dc:title></dc:title>
      </cc:Work>
    </rdf:RDF>
  </metadata>
  <g
     inkscape:label="Layer 1"
     inkscape:groupmode="layer"
     id="layer1">
    <path
       id="rect2295"
       transform="scale(0.26458333)"
       style="opacity:0.90899999;fill:none;fill-opacity:1;stroke:none;stroke-width:3.77952766;stroke-miterlimit:4;stroke-dasharray:none;stroke-opacity:0.94472363"
       d="M 122.85742,245.37695 V 731.0918 h 240 V 305.375 c -1.0124,-7e-5 -2.02468,-0.005 -3.03711,-0.004 -4.43127,0.014 -8.86364,0.008 -13.29492,0.006 -2.83804,-2.9e-4 -5.67564,-1.8e-4 -8.51367,0 -0.43405,3e-5 -0.88564,0.12011 -1.30274,0 -1.67775,-0.48317 -3.28134,-1.19551 -4.92187,-1.79297 -0.20913,-0.65085 -0.48271,-1.29338 -0.77344,-1.93554 -4.64063,-0.22504 -9.28189,-0.44764 -13.92383,-0.61524 -3.47207,-0.12536 -6.94401,-0.22141 -10.41796,-0.26953 -2.35388,-0.0325 -4.71079,0.13214 -7.0625,0.0274 -1.90452,-0.085 -3.79155,-0.39869 -5.6875,-0.59766 -1.79172,-1.17876 -4.18036,-1.78967 -5.62305,-3.30078 -4.19381,-0.001 -8.38629,-0.009 -12.58008,-0.0215 -3.09158,-0.009 -6.18951,0.14284 -9.27539,-0.0449 -1.84624,-0.1124 -3.65473,-0.56931 -5.48242,-0.85351 -1.82508,-1.47595 -5.30687,-2.08669 -5.47656,-4.42774 -0.75075,-10.35378 2.20438,-8.35748 5.84765,-11.59961 0.87272,-0.77662 1.61914,-1.6916 2.51172,-2.44531 7.2172,-6.09431 10.11181,-7.76897 18.66602,-13.77344 0.36566,-0.21857 0.77996,-0.47099 1.15039,-0.69336 -1.99993,-0.20361 -3.99835,-0.4225 -6.00586,-0.51562 -0.0117,-5.5e-4 -3.29642,-0.002 -6.41016,-0.004 -3.79125,0.0463 -7.58247,0.073 -11.37305,0.0527 -0.68961,0.12754 -1.59038,0.52126 -1.75195,-0.01 -0.40629,-0.004 -0.81247,-0.003 -1.21875,-0.008 0.21802,-3.61503 0.005,-7.29042 0.3418,-10.88867 -0.0307,-1.13512 -0.0686,-2.26842 -0.14844,-3.39649 0.22134,0.003 0.44271,9.1e-4 0.66406,0.004 0.002,-0.008 0.002,-0.017 0.004,-0.0254 0.17012,-0.76096 1.56011,-0.013 2.33984,-0.0156 1.27021,-0.004 2.54035,-0.004 3.81055,-0.004 -1.12598,-1.20365 -1.80384,-2.11616 -2.04883,-2.84571 z m 170.20117,0 c -0.61182,0.16262 -1.25432,0.33793 -2.06054,0.57617 -1.92901,0.57009 -3.74293,1.3079 -5.53516,2.0918 2.13889,-0.0253 4.27717,-0.055 6.41602,-0.0625 0.32981,-0.95894 0.93984,-1.8529 1.8125,-2.60547 z m 4.20508,26.11133 c -2.23951,1.34889 -4.47027,2.6977 -6.55664,3.93945 -4.08031,2.85297 -7.17372,4.93207 -10.25,7.16602 3.13367,0.008 6.26672,0.019 9.40039,0.0176 0.51966,-0.45128 1.07298,-0.89585 1.66992,-1.33594 3.31262,-2.4422 16.28171,-3.65025 19.87891,-4.1543 10.0286,-1.41143 20.14976,-2.16368 30.28906,-2.45117 -11.65917,-0.28997 -23.40997,-0.4757 -34.88672,-1.7539 -3.35203,-0.37333 -6.44386,-0.88249 -9.54492,-1.42774 z" />
    <path
       id="rect874"
       transform="scale(0.26458333)"
       style="opacity:0.331;fill:#ffffff;fill-opacity:1;fill-rule:evenodd;stroke:none;stroke-width:4.53543329;stroke-miterlimit:4;stroke-dasharray:none;stroke-opacity:0.94472363"
       d="m -125.78125,410.01953 v 4.77539 c 6.78152,-0.73378 13.6123,-1.05201 20.42578,-1.05859 3.74205,-0.003 11.720413,0.25858 16.552736,0.41406 1.219592,-1.72136 3.138656,-1.48125 5.761718,-2.17969 0.807466,-0.21505 1.574959,-0.55495 2.363282,-0.83203 1.016062,-0.48515 2.054455,-0.84468 3.107422,-1.11914 z m 64.548828,0 c 1.171232,1.39907 1.619762,3.69874 1.369141,5.50586 -0.01499,0.10809 -0.0373,0.20758 -0.05469,0.3125 2.781602,-0.0411 5.562431,-0.0699 8.34375,-0.0703 -0.282423,0.73779 -0.500324,1.51515 -0.703125,2.30273 2.061514,0.0415 4.122607,0.096 6.183594,0.15821 v -8.20899 z m -1.818359,3.92383 c -0.02783,-10e-4 -0.05033,0.005 -0.07813,0.006 0.01984,0.0381 0.04235,0.0753 0.0625,0.11328 0.09962,-0.0229 0.155248,-0.0293 0.261718,-0.0547 0.09753,-0.0232 -0.06529,-0.058 -0.246093,-0.0645 z m 16.957031,13.88281 c -1.249147,0.81773 -2.449764,1.46365 -2.955078,1.79883 -1.260703,0.83622 -2.493485,1.71342 -3.740234,2.57031 -0.549056,0.41469 -1.03756,0.79021 -1.541016,1.17578 0.563646,-0.0468 1.128764,-0.0984 1.689453,-0.13671 1.752461,-0.11982 3.513132,-0.0469 5.269531,-0.0703 0.46183,0.0504 0.861169,0.0969 1.277344,0.14453 z m -38.300781,2.26953 c -4.067948,0.074 -8.136254,0.0987 -12.205078,0.0996 -3.874981,0.55448 -7.755681,1.13222 -11.083981,1.61719 -0.2608,0.0414 -0.53456,0.0824 -0.79688,0.12305 0.0968,-0.007 0.21603,-0.0205 0.31055,-0.0273 5.08093,-0.37001 10.182472,-0.37218 15.273436,-0.55859 5.86742,0.17666 11.740115,0.40818 17.595703,0.83789 -1.116392,-0.34302 -2.222656,-0.63549 -3.248047,-0.88867 -1.931011,-0.47676 -3.878147,-0.91194 -5.845703,-1.20313 z m 38.300781,13.20118 c -2.090022,0.33437 -4.819716,0.16906 -6.863281,0.125 -1.217737,-0.0331 -2.43645,-0.0536 -3.654297,-0.0801 -0.09133,0.118 -0.28563,0.18284 -0.521484,0.22461 -0.906849,0.93455 -1.99892,1.2082 -3.234376,1.26562 -0.889315,0.63192 -1.769688,1.27624 -2.644531,1.92774 0.188708,0.48337 0.376707,0.98603 0.574219,1.51367 0.03282,0.0877 -0.02458,0.52297 -0.105469,1.04492 2.048097,-0.006 4.095783,-0.0166 6.142578,-0.0762 0.911558,-0.32263 1.830529,-0.61392 2.798829,-0.68946 5.107612,-0.0113 4.870628,-0.95275 4.68164,8.61524 -0.01173,0.59128 -1.011172,0.36322 -1.705078,0.34375 -0.0095,0.0477 -0.0053,0.0947 -0.01953,0.14258 -0.623466,2.09196 -1.865099,3.32121 -3.359375,4.17578 -0.103275,0.10869 -0.200242,0.22398 -0.314453,0.32226 -0.109823,0.0945 -0.229757,0.17582 -0.341797,0.26758 0.11646,9.4e-4 0.209618,-10e-4 0.34375,0.002 0.717588,0.0151 1.802396,-0.46013 2.146484,0.16992 0.14318,0.26211 0.269114,0.54385 0.40625,0.81445 0.0039,-3.1e-4 0.0078,-0.002 0.01172,-0.002 0.03542,-0.19017 0.07631,-0.38046 0.103515,-0.57032 1.850593,-0.16904 3.702435,-0.33798 5.554688,-0.5 z m -8.240234,19.40234 c -0.44507,0.0333 -1.091531,0.52025 -1.146485,0.9375 0.168526,-0.008 0.363399,-0.0192 0.523438,-0.0273 0.413821,-0.14038 0.789124,-0.24816 1.15625,-0.34961 -0.05911,-0.13095 -0.10969,-0.26549 -0.173828,-0.39454 -0.06507,-0.13093 -0.198782,-0.17802 -0.359375,-0.16601 z" />
    <rect
       style="opacity:0.331;fill:#ffffff;fill-opacity:1;fill-rule:evenodd;stroke:#000000;stroke-width:0.2;stroke-miterlimit:4;stroke-dasharray:none;stroke-opacity:0.94472361"
       id="rect958"
       width="4.7542319"
       height="10.955403"
       x="23.357748"
       y="106.00391" />
    <g
       id="g5784">
      <g
         id="g5797"
         transform="translate(-38.137207,9.4051108)">
        <g
           transform="matrix(-0.02511632,0,0,-0.01273113,129.94021,87.343613)"
           id="g826"
           style="stroke-width:11.18454933;stroke-miterlimit:4;stroke-dasharray:none">
          <path
             transform="matrix(0,-1,-1,0,0,0)"
             d="m -919.48554,-158.70944 a 114.45734,177.75238 0 0 1 -130.77876,139.517913 114.45734,177.75238 0 0 1 -94.8951,-197.474443"
             sodipodi:open="true"
             sodipodi:end="3.2662668"
             sodipodi:start="0.20309397"
             sodipodi:ry="177.75238"
             sodipodi:rx="114.45734"
             sodipodi:cy="-194.56221"
             sodipodi:cx="-1031.5905"
             sodipodi:type="arc"
             id="path821"
             style="fill:none;stroke:#000000;stroke-width:11.18454933;stroke-miterlimit:4;stroke-dasharray:none;stroke-opacity:1" />
          <path
             transform="matrix(0,-1,-1,0,0,0)"
             style="fill:none;stroke:#000000;stroke-width:11.18454933;stroke-miterlimit:4;stroke-dasharray:none;stroke-opacity:1"
             id="path823"
             sodipodi:type="arc"
             sodipodi:cx="-1035.0267"
             sodipodi:cy="-302.75983"
             sodipodi:rx="117.21098"
             sodipodi:ry="249.88245"
             sodipodi:start="0.48429793"
             sodipodi:end="2.8121819"
             sodipodi:open="true"
             d="M -931.29477,-186.41777 A 117.21098,249.88245 0 0 1 -1044.0949,-53.626342 117.21098,249.88245 0 0 1 -1145.9356,-221.92647" />
          <path
             inkscape:connector-curvature="0"
             id="path117"
             d="m 159.16173,919.48551 v -175.911"
             style="fill:#000000;fill-opacity:1;stroke:#000000;stroke-width:11.18454933;stroke-linecap:butt;stroke-linejoin:miter;stroke-miterlimit:4;stroke-dasharray:none;stroke-opacity:1" />
          <path
             inkscape:connector-curvature="0"
             id="path119"
             d="M 186.51819,931.29477 V 742.80558"
             style="fill:none;stroke:#000000;stroke-width:11.18454933;stroke-linecap:butt;stroke-linejoin:miter;stroke-miterlimit:4;stroke-dasharray:none;stroke-opacity:1" />
        </g>
        <path
           id="path5189"
           title="t+cos(3*t) 3*sin(3*t)"
           d="m 128.70442,90.61135 c -0.68737,-0.08779 -1.52173,-0.155684 -2.38894,-0.198598 -0.86718,-0.04291 -1.76474,-0.06072 -2.5696,-0.05531 -0.80484,0.0054 -1.51431,0.03404 -2.03177,0.07767 -0.51748,0.04362 -0.8405,0.102094 -0.92589,0.163135 -0.0854,0.06103 0.0683,0.124407 0.43887,0.177208 0.37053,0.05281 0.95806,0.09475 1.68095,0.11595 0.72286,0.0212 1.5799,0.0214 2.45299,-0.0036 0.87312,-0.02492 1.76004,-0.07511 2.53922,-0.147778 0.77922,-0.07267 1.44802,-0.167819 1.91547,-0.276512 0.46745,-0.108691 0.73115,-0.230791 0.75612,-0.353714 0.0252,-0.122923 -0.19009,-0.246425 -0.6146,-0.357803 -0.42445,-0.111378 -1.05825,-0.21035 -1.8135,-0.287638 -0.75523,-0.07729 -1.6305,-0.132649 -2.50532,-0.16283 -0.87485,-0.03018 -1.74685,-0.03505 -2.4967,-0.01829 -0.74982,0.01677 -1.37478,0.05516 -1.78996,0.105589 -0.41518,0.05043 -0.6183,0.11275 -0.58274,0.17416 0.0356,0.06141 0.31104,0.121641 0.78739,0.168246 0.47635,0.04661 1.15341,0.07932 1.93736,0.08951 0.78395,0.01018 1.6733,-0.0023 2.54566,-0.04004 0.87239,-0.03767 1.72535,-0.100585 2.44222,-0.184183 0.71684,-0.0836 1.29493,-0.187864 1.65586,-0.302611 0.36093,-0.11475 0.5025,-0.239806 0.40659,-0.362212 -0.096,-0.122402 -0.43044,-0.24189 -0.95641,-0.346322 -0.52596,-0.104436 -1.24302,-0.19353 -2.05195,-0.259388 -0.80894,-0.06585 -1.70807,-0.108249 -2.57379,-0.125711 -0.86576,-0.01746 -1.69556,-0.0099 -2.37604,0.01733 -0.68044,0.02722 -1.20893,0.07405 -1.51386,0.129739 -0.30494,0.0557 -0.3843,0.120084 -0.22845,0.180088 0.15594,0.06001 0.54777,0.115363 1.12083,0.1543 0.57305,0.03895 1.32668,0.0612 2.15674,0.05959 0.83003,-0.0016 1.73467,-0.02728 2.58961,-0.07758 0.85495,-0.0503 1.65763,-0.125308 2.29843,-0.218829 0.64083,-0.09352 1.11713,-0.205491 1.36462,-0.324686 0.24748,-0.119188 0.26428,-0.24541 0.0493,-0.365542 -0.21501,-0.120134 -0.66247,-0.233903 -1.27987,-0.32998 -0.6174,-0.09607 -1.40401,-0.174185 -2.25117,-0.227939 -0.84717,-0.05375 -1.75295,-0.08295 -2.59303,-0.08795 -0.84006,-0.005 -1.61177,0.01427 -2.20988,0.05084 -0.59808,0.03657 -1.01993,0.09033 -1.20882,0.149637 -0.18897,0.0593 -0.14306,0.123936 0.13018,0.180807 0.27325,0.05686 0.77404,0.105699 1.43282,0.135639 0.6588,0.02993 1.47458,0.04072 2.33482,0.02676 0.86024,-0.01396 1.76286,-0.05283 2.58402,-0.115388 0.82118,-0.06255 1.55824,-0.148809 2.11071,-0.251052 0.55251,-0.10224 0.91791,-0.220364 1.04725,-0.342311 0.12935,-0.121948 0.0196,-0.247495 -0.30902,-0.363644 -0.32996,-0.116147 -0.88185,-0.222616 -1.5789,-0.309088 -0.69702,-0.08647 -1.5381,-0.152684 -2.40727,-0.193894 -0.8692,-0.04121 -1.76432,-0.05725 -2.56266,-0.05027 -0.79831,0.007 -1.49718,0.037 -2.00142,0.08162 -0.50426,0.04462 -0.81146,0.103713 -0.88067,0.164906 -0.0692,0.0612 0.10107,0.124243 0.48638,0.176301 0.38522,0.05206 0.98546,0.09284 1.71739,0.112616 0.73193,0.01978 1.59427,0.0183 2.46825,-0.0083 0.87399,-0.02663 1.7573,-0.07856 2.52898,-0.152751 0.77166,-0.07418 1.42898,-0.17064 1.88257,-0.280234 0.45363,-0.109599 0.70114,-0.232197 0.70985,-0.355154 0.008,-0.122955 -0.22285,-0.24602 -0.66138,-0.356552 -0.43862,-0.110531 -1.08438,-0.208247 -1.84769,-0.284046 -0.76332,-0.0758 -1.64279,-0.129436 -2.51736,-0.157903 -0.87457,-0.02847 -1.74189,-0.03163 -2.4832,-0.0134 -0.74131,0.01823 -1.35395,0.05784 -1.75472,0.109072 -0.40079,0.05123 -0.58744,0.11394 -0.53562,0.175258 0.0518,0.06132 0.34329,0.120991 0.83322,0.166657 0.4899,0.04566 1.17805,0.07702 1.96911,0.08567 0.79106,0.0087 1.68344,-0.0056 2.55445,-0.04504 0.87099,-0.03938 1.71813,-0.103958 2.42553,-0.188959 0.70741,-0.085 1.2724,-0.190381 1.61846,-0.305822 0.34603,-0.115436 0.47092,-0.240762 0.35883,-0.362963 -0.11199,-0.122205 -0.46219,-0.241014 -1.00109,-0.344403 -0.53887,-0.103393 -1.26613,-0.191068 -2.08112,-0.255333 -0.815,-0.06426 -1.71603,-0.104889 -2.57926,-0.12066 -0.86323,-0.01578 -1.68612,-0.0066 -2.35627,0.02198 -0.67011,0.02855 -1.18479,0.07639 -1.47441,0.132669 -0.28965,0.05628 -0.3522,0.120808 -0.1803,0.18049 0.1719,0.05969 0.5789,0.114259 1.16414,0.15206 0.58526,0.03781 1.34812,0.05858 2.18316,0.05533 0.83505,-0.0032 1.74041,-0.03068 2.59175,-0.08265 0.85136,-0.05197 1.64609,-0.128546 2.27569,-0.223316 0.62964,-0.09477 1.09152,-0.207658 1.32335,-0.32732 0.23181,-0.119668 0.23181,-0.245898 0.001,-0.365593 -0.23069,-0.119692 -0.69282,-0.232574 -1.32164,-0.327429 -0.62882,-0.09486 -1.42366,-0.171411 -2.27474,-0.223499 -0.85109,-0.05209 -1.75646,-0.07952 -2.59183,-0.08286 -0.83538,-0.0033 -1.59813,0.01743 -2.18423,0.05515 -0.5861,0.03773 -0.99297,0.09231 -1.16593,0.151965 -0.17302,0.05966 -0.11031,0.124185 0.17833,0.180504 0.28856,0.05632 0.80341,0.104154 1.4728,0.132789 0.66939,0.02863 1.49239,0.03781 2.35543,0.02216 0.86306,-0.01565 1.76406,-0.0563 2.57948,-0.120451 0.81541,-0.06415 1.54253,-0.151852 2.08232,-0.255166 0.53977,-0.103319 0.88969,-0.222137 1.00291,-0.344322 0.1131,-0.122181 -0.0112,-0.247504 -0.3569,-0.362992 -0.34496,-0.115485 -0.91015,-0.220858 -1.61689,-0.305952 -0.70673,-0.0851 -1.55395,-0.149651 -2.42483,-0.189155 -0.8709,-0.0395 -1.76325,-0.05379 -2.55479,-0.04525 -0.79153,0.0086 -1.47954,0.03992 -1.97039,0.08551 -0.49089,0.0456 -0.78216,0.105282 -0.83513,0.16659 -0.0529,0.0613 0.13382,0.124012 0.53369,0.1753 0.39979,0.05129 1.01257,0.09089 1.75326,0.109219 0.74072,0.01834 1.60807,0.01515 2.48264,-0.0132 0.87455,-0.02835 1.75396,-0.082 2.51784,-0.157701 0.76387,-0.07569 1.40946,-0.173424 1.84909,-0.283896 0.43959,-0.110469 0.67087,-0.233542 0.66328,-0.356499 -0.008,-0.122958 -0.25532,-0.245552 -0.70791,-0.355209 -0.45264,-0.109661 -1.1101,-0.206095 -1.88123,-0.280388 -0.77115,-0.07429 -1.65451,-0.126204 -2.52853,-0.152956 -0.87404,-0.02675 -1.73632,-0.02821 -2.46886,-0.0086 -0.73255,0.01967 -1.33265,0.06047 -1.71888,0.11248 -0.38624,0.05201 -0.55637,0.115056 -0.48831,0.176261 0.068,0.0612 0.37545,0.120293 0.87877,0.164978 0.50331,0.04469 1.20232,0.0747 2.00018,0.08179 0.79787,0.0071 1.69301,-0.009 2.56232,-0.05007 0.86931,-0.0411 1.71032,-0.107318 2.40804,-0.1937 0.69772,-0.08637 1.24944,-0.192857 1.58046,-0.30896 0.33103,-0.116111 0.43923,-0.241655 0.31101,-0.36362 -0.12822,-0.12196 -0.49382,-0.240076 -1.04543,-0.342396 -0.55161,-0.102314 -1.2888,-0.188562 -2.10957,-0.251222 -0.82076,-0.06266 -1.72338,-0.101517 -2.58384,-0.115596 -0.86044,-0.01408 -1.67616,-0.0033 -2.3357,0.02657 -0.65953,0.02985 -1.16024,0.07869 -1.43446,0.135522 -0.27436,0.05683 -0.31994,0.12147 -0.13214,0.180796 0.18785,0.05933 0.60981,0.113081 1.20708,0.149733 0.59724,0.03664 1.36907,0.0559 2.20881,0.05102 0.83974,-0.0049 1.74553,-0.03411 2.593,-0.08775 0.84745,-0.05364 1.63394,-0.131765 2.25215,-0.227757 0.61822,-0.09599 1.06551,-0.209775 1.28161,-0.329877 0.21613,-0.120096 0.19905,-0.24632 -0.0473,-0.365547 -0.24637,-0.119226 -0.72289,-0.231185 -1.36294,-0.324795 -0.64002,-0.09361 -1.44281,-0.1686 -2.2975,-0.219015 -0.85473,-0.05042 -1.75934,-0.07607 -2.58973,-0.07779 -0.83039,-0.0017 -1.58391,0.02055 -2.15783,0.05942 -0.57392,0.03886 -0.96567,0.09423 -1.12262,0.154211 -0.15706,0.05998 -0.0773,0.124369 0.22649,0.180106 0.30387,0.05573 0.83249,0.102547 1.51227,0.129861 0.67974,0.02731 1.50963,0.03487 2.37519,0.01752 0.86559,-0.01734 1.76468,-0.05976 2.57405,-0.125504 0.80937,-0.06574 1.52632,-0.154862 2.05318,-0.259222 0.52689,-0.104361 0.86119,-0.223855 0.95826,-0.346245 0.0971,-0.12239 -0.0448,-0.247449 -0.40463,-0.362245 -0.35989,-0.114798 -0.93813,-0.219045 -1.65435,-0.302744 -0.71623,-0.0837 -1.56924,-0.146587 -2.44152,-0.184381 -0.8723,-0.0378 -1.7616,-0.05033 -2.54605,-0.04025 -0.78448,0.01006 -1.4614,0.0428 -1.93871,0.08935 -0.4773,0.04654 -0.75256,0.106778 -0.78927,0.168183 -0.0367,0.06141 0.16658,0.123716 0.58081,0.174206 0.41418,0.05049 1.03928,0.08887 1.78854,0.105736 0.74923,0.01688 1.62131,0.01202 2.49613,-0.01808"
           style="opacity:1;fill:none;fill-opacity:1;fill-rule:evenodd;stroke:#000000;stroke-width:0.40000001;stroke-miterlimit:4;stroke-dasharray:none;stroke-opacity:0.94472363"
           inkscape:connector-curvature="0" />
        <g
           style="stroke-width:11.18454933;stroke-miterlimit:4;stroke-dasharray:none"
           id="g5202"
           transform="matrix(0.02511632,0,0,0.01273113,121.53446,80.758909)">
          <path
             style="fill:none;stroke:#000000;stroke-width:11.18454933;stroke-miterlimit:4;stroke-dasharray:none;stroke-opacity:1"
             id="path5194"
             sodipodi:type="arc"
             sodipodi:cx="-1031.5905"
             sodipodi:cy="-194.56221"
             sodipodi:rx="114.45734"
             sodipodi:ry="177.75238"
             sodipodi:start="0.20309397"
             sodipodi:end="3.2662668"
             sodipodi:open="true"
             d="m -919.48554,-158.70944 a 114.45734,177.75238 0 0 1 -130.77876,139.517913 114.45734,177.75238 0 0 1 -94.8951,-197.474443"
             transform="matrix(0,-1,-1,0,0,0)" />
          <path
             d="M -931.29477,-186.41777 A 117.21098,249.88245 0 0 1 -1044.0949,-53.626342 117.21098,249.88245 0 0 1 -1145.9356,-221.92647"
             sodipodi:open="true"
             sodipodi:end="2.8121819"
             sodipodi:start="0.48429793"
             sodipodi:ry="249.88245"
             sodipodi:rx="117.21098"
             sodipodi:cy="-302.75983"
             sodipodi:cx="-1035.0267"
             sodipodi:type="arc"
             id="path5196"
             style="fill:none;stroke:#000000;stroke-width:11.18454933;stroke-miterlimit:4;stroke-dasharray:none;stroke-opacity:1"
             transform="matrix(0,-1,-1,0,0,0)" />
          <path
             style="fill:#000000;fill-opacity:1;stroke:#000000;stroke-width:11.18454933;stroke-linecap:butt;stroke-linejoin:miter;stroke-miterlimit:4;stroke-dasharray:none;stroke-opacity:1"
             d="m 159.16173,919.48551 v -175.911"
             id="path5198"
             inkscape:connector-curvature="0" />
          <path
             style="fill:none;stroke:#000000;stroke-width:11.18454933;stroke-linecap:butt;stroke-linejoin:miter;stroke-miterlimit:4;stroke-dasharray:none;stroke-opacity:1"
             d="M 186.51819,931.29477 V 742.80558"
             id="path5200"
             inkscape:connector-curvature="0" />
        </g>
      </g>
    </g>
  </g>
</svg>
